<?xml version="1.0" encoding="UTF-8"?>
<svg xmlns="http://www.w3.org/2000/svg" width="605" height="605" viewBox="0 0 605 605" fill="none">
  <g clip-path="url(#clip0_2909_23118)">
    <path d="M555.064 392.427C555.064 392.427 622.213 317.016 600.925 185.768C579.506 54.3894 469.912 6.04192 397.112 31.3981C324.312 56.6228 308.018 100.635 248.622 125.728C189.225 150.821 76.3464 133.611 19.9726 218.088C-36.4012 302.564 35.6101 442.483 127.332 530.244C218.923 618.005 453.092 563.089 555.064 392.427Z" fill="#92E3A9"></path>
    <path opacity="0.7" d="M555.064 392.427C555.064 392.427 622.213 317.016 600.925 185.768C579.506 54.3894 469.912 6.04192 397.112 31.3981C324.312 56.6228 308.018 100.635 248.622 125.728C189.225 150.821 76.3464 133.611 19.9726 218.088C-36.4012 302.564 35.6101 442.483 127.332 530.244C218.923 618.005 453.092 563.089 555.064 392.427Z" fill="white"></path>
    <path d="M61.2344 604.342H586.996" stroke="#263238" stroke-miterlimit="10"></path>
    <path d="M142.84 404.645L163.734 604.078" stroke="#263238" stroke-width="2" stroke-miterlimit="10"></path>
    <path d="M159.925 563.219L150.727 553.365" stroke="#263238" stroke-width="2" stroke-miterlimit="10"></path>
    <path d="M153.486 556.256C153.486 556.256 153.749 551.92 149.806 548.373C147.441 546.271 134.957 541.016 133.643 545.352C132.461 550.213 145.207 559.672 153.486 556.256Z" fill="#92E3A9" stroke="#263238" stroke-miterlimit="10"></path>
    <path d="M153.485 556.256L141.527 548.898" stroke="#263238" stroke-width="0.5" stroke-miterlimit="10"></path>
    <path d="M162.287 585.421L152.957 575.699" stroke="#263238" stroke-width="2" stroke-miterlimit="10"></path>
    <path d="M155.85 578.59C155.85 578.59 156.113 574.254 152.17 570.707C149.805 568.605 137.321 563.35 136.007 567.686C134.693 572.547 147.571 582.006 155.85 578.59Z" fill="#92E3A9" stroke="#263238" stroke-miterlimit="10"></path>
    <path d="M155.849 578.59L143.891 571.232" stroke="#263238" stroke-width="0.5" stroke-miterlimit="10"></path>
    <path d="M154.273 508.828L145.074 498.975" stroke="#263238" stroke-width="2" stroke-miterlimit="10"></path>
    <path d="M147.834 501.865C147.834 501.865 148.097 497.53 144.155 493.983C141.789 491.881 129.306 486.625 127.992 490.961C126.678 495.822 139.556 505.281 147.834 501.865Z" fill="#92E3A9" stroke="#263238" stroke-miterlimit="10"></path>
    <path d="M147.833 501.865L135.875 494.508" stroke="#263238" stroke-width="0.5" stroke-miterlimit="10"></path>
    <path d="M156.635 531.031L147.305 521.309" stroke="#263238" stroke-width="2" stroke-miterlimit="10"></path>
    <path d="M150.197 524.199C150.197 524.199 150.46 519.864 146.518 516.317C144.153 514.215 131.669 508.959 130.355 513.295C129.041 518.156 141.919 527.615 150.197 524.199Z" fill="#92E3A9" stroke="#263238" stroke-miterlimit="10"></path>
    <path d="M150.196 524.199L138.238 516.842" stroke="#263238" stroke-width="0.5" stroke-miterlimit="10"></path>
    <path d="M150.464 472.568L141.266 462.715" stroke="#263238" stroke-width="2" stroke-miterlimit="10"></path>
    <path d="M144.025 465.736C144.025 465.736 144.288 461.401 140.345 457.854C137.98 455.752 125.496 450.497 124.182 454.832C123 459.693 135.746 469.021 144.025 465.736Z" fill="#92E3A9" stroke="#263238" stroke-miterlimit="10"></path>
    <path d="M144.024 465.737L132.066 458.248" stroke="#263238" stroke-width="0.5" stroke-miterlimit="10"></path>
    <path d="M146.652 436.175L137.453 426.453" stroke="#263238" stroke-width="2" stroke-miterlimit="10"></path>
    <path d="M140.212 429.344C140.212 429.344 140.475 425.008 136.533 421.461C134.168 419.359 121.684 414.104 120.37 418.439C119.187 423.3 131.934 432.76 140.212 429.344Z" fill="#92E3A9" stroke="#263238" stroke-miterlimit="10"></path>
    <path d="M140.213 429.344L128.387 421.855" stroke="#263238" stroke-width="0.5" stroke-miterlimit="10"></path>
    <path d="M158.348 549.95L165.444 538.52" stroke="#263238" stroke-width="2" stroke-miterlimit="10"></path>
    <path d="M163.342 541.935C163.342 541.935 162.16 537.731 165.313 533.527C167.153 530.9 178.323 523.148 180.425 527.221C182.659 531.688 172.147 543.512 163.342 541.935Z" fill="#92E3A9" stroke="#263238" stroke-miterlimit="10"></path>
    <path d="M163.34 541.935L173.984 531.688" stroke="#263238" stroke-width="0.5" stroke-miterlimit="10"></path>
    <path d="M152.301 491.356L159.397 479.795" stroke="#263238" stroke-width="2" stroke-miterlimit="10"></path>
    <path d="M157.163 483.342C157.163 483.342 155.98 479.137 159.134 474.933C160.973 472.306 172.143 464.554 174.246 468.627C176.611 472.963 165.967 484.918 157.163 483.342Z" fill="#92E3A9" stroke="#263238" stroke-miterlimit="10"></path>
    <path d="M157.164 483.342L167.939 472.963" stroke="#263238" stroke-width="0.5" stroke-miterlimit="10"></path>
    <path d="M149.543 465.604L156.639 454.043" stroke="#263238" stroke-width="2" stroke-miterlimit="10"></path>
    <path d="M154.538 457.459C154.538 457.459 153.355 453.255 156.509 449.051C158.348 446.423 169.518 438.672 171.621 442.744C173.854 447.211 163.21 459.035 154.538 457.459Z" fill="#92E3A9" stroke="#263238" stroke-miterlimit="10"></path>
    <path d="M154.535 457.459L165.179 447.211" stroke="#263238" stroke-width="0.5" stroke-miterlimit="10"></path>
    <path d="M145.602 427.768L152.698 416.207" stroke="#263238" stroke-width="2" stroke-miterlimit="10"></path>
    <path d="M150.596 419.754C150.596 419.754 149.413 415.55 152.567 411.345C154.407 408.718 165.577 400.967 167.679 405.039C169.913 409.375 159.269 421.33 150.596 419.754Z" fill="#92E3A9" stroke="#263238" stroke-miterlimit="10"></path>
    <path d="M150.594 419.754L161.238 409.375" stroke="#263238" stroke-width="0.5" stroke-miterlimit="10"></path>
    <path d="M142.581 403.594C142.581 403.594 141.398 399.389 144.552 395.185C146.391 392.558 157.561 384.806 159.663 388.879C162.029 393.346 151.385 405.17 142.581 403.594Z" fill="#92E3A9" stroke="#263238" stroke-miterlimit="10"></path>
    <path d="M142.578 403.593L153.354 393.346" stroke="#263238" stroke-width="0.5" stroke-miterlimit="10"></path>
    <path d="M143.236 403.988C143.236 403.988 138.9 404.645 135.089 401.098C132.723 398.996 126.153 387.04 130.49 385.332C135.089 383.624 145.733 395.448 143.236 403.988Z" fill="#92E3A9" stroke="#263238" stroke-miterlimit="10"></path>
    <path d="M143.235 403.988L134.168 392.295" stroke="#263238" stroke-width="0.5" stroke-miterlimit="10"></path>
    <path d="M196.718 431.709L179.504 604.078" stroke="#263238" stroke-width="2" stroke-miterlimit="10"></path>
    <path d="M180.948 590.285L173.852 578.855" stroke="#263238" stroke-width="2" stroke-miterlimit="10"></path>
    <path d="M175.954 582.271C175.954 582.271 177.137 578.067 173.983 573.863C172.144 571.235 160.974 563.615 158.871 567.688C156.638 572.024 167.282 583.848 175.954 582.271Z" fill="#92E3A9" stroke="#263238" stroke-miterlimit="10"></path>
    <path d="M175.954 582.271L165.836 572.549" stroke="#263238" stroke-width="0.5" stroke-miterlimit="10"></path>
    <path d="M186.6 535.893L179.504 524.463" stroke="#263238" stroke-width="2" stroke-miterlimit="10"></path>
    <path d="M181.607 527.878C181.607 527.878 182.789 523.674 179.636 519.47C177.796 516.843 166.626 509.223 164.524 513.295C162.29 517.631 172.934 529.455 181.607 527.878Z" fill="#92E3A9" stroke="#263238" stroke-miterlimit="10"></path>
    <path d="M181.607 527.878L171.488 518.156" stroke="#263238" stroke-width="0.5" stroke-miterlimit="10"></path>
    <path d="M184.233 558.229L177.137 546.668" stroke="#263238" stroke-width="2" stroke-miterlimit="10"></path>
    <path d="M179.371 550.214C179.371 550.214 180.553 546.01 177.4 541.806C175.56 539.179 164.39 531.559 162.288 535.631C159.922 539.836 170.566 551.791 179.371 550.214Z" fill="#92E3A9" stroke="#263238" stroke-miterlimit="10"></path>
    <path d="M179.372 550.214L169.254 540.492" stroke="#263238" stroke-width="0.5" stroke-miterlimit="10"></path>
    <path d="M190.281 499.633L183.316 488.203" stroke="#263238" stroke-width="2" stroke-miterlimit="10"></path>
    <path d="M185.418 491.619C185.418 491.619 186.6 487.415 183.447 483.21C181.607 480.583 170.437 472.963 168.335 477.036C165.969 481.371 176.613 493.195 185.418 491.619Z" fill="#92E3A9" stroke="#263238" stroke-miterlimit="10"></path>
    <path d="M185.419 491.619L175.301 481.896" stroke="#263238" stroke-width="0.5" stroke-miterlimit="10"></path>
    <path d="M194.088 463.372L186.992 451.811" stroke="#263238" stroke-width="2" stroke-miterlimit="10"></path>
    <path d="M189.226 455.226C189.226 455.226 190.409 451.022 187.255 446.818C185.415 444.19 174.246 436.57 172.143 440.643C169.778 444.979 180.422 456.934 189.226 455.226Z" fill="#92E3A9" stroke="#263238" stroke-miterlimit="10"></path>
    <path d="M189.228 455.226L179.109 445.504" stroke="#263238" stroke-width="0.5" stroke-miterlimit="10"></path>
    <path d="M182.129 577.146L191.327 567.293" stroke="#263238" stroke-width="2" stroke-miterlimit="10"></path>
    <path d="M188.566 570.184C188.566 570.184 188.303 565.848 192.246 562.301C194.611 560.199 207.095 554.944 208.409 559.279C209.591 564.14 196.845 573.6 188.566 570.184Z" fill="#92E3A9" stroke="#263238" stroke-miterlimit="10"></path>
    <path d="M188.566 570.183L201.182 562.432" stroke="#263238" stroke-width="0.5" stroke-miterlimit="10"></path>
    <path d="M188.176 518.42L197.506 508.566" stroke="#263238" stroke-width="2" stroke-miterlimit="10"></path>
    <path d="M194.613 511.588C194.613 511.588 194.35 507.253 198.292 503.705C200.658 501.603 213.141 496.348 214.456 500.684C215.77 505.545 202.892 514.873 194.613 511.588Z" fill="#92E3A9" stroke="#263238" stroke-miterlimit="10"></path>
    <path d="M194.613 511.588L207.228 503.705" stroke="#263238" stroke-width="0.5" stroke-miterlimit="10"></path>
    <path d="M190.934 492.67L200.132 482.816" stroke="#263238" stroke-width="2" stroke-miterlimit="10"></path>
    <path d="M197.371 485.707C197.371 485.707 197.108 481.372 201.05 477.824C203.416 475.722 215.899 470.467 217.213 474.803C218.396 479.664 205.649 489.123 197.371 485.707Z" fill="#92E3A9" stroke="#263238" stroke-miterlimit="10"></path>
    <path d="M197.371 485.706L209.986 477.955" stroke="#263238" stroke-width="0.5" stroke-miterlimit="10"></path>
    <path d="M194.746 454.832L204.076 444.979" stroke="#263238" stroke-width="2" stroke-miterlimit="10"></path>
    <path d="M201.316 448C201.316 448 201.053 443.665 204.996 440.117C207.361 438.015 219.845 432.76 221.159 437.096C222.341 441.957 209.463 451.285 201.316 448Z" fill="#92E3A9" stroke="#263238" stroke-miterlimit="10"></path>
    <path d="M201.316 448.002L213.932 440.119" stroke="#263238" stroke-width="0.5" stroke-miterlimit="10"></path>
    <path d="M196.847 430.528C196.847 430.528 196.585 426.192 200.527 422.645C202.892 420.543 215.376 415.288 216.69 419.623C217.873 424.484 205.126 433.943 196.847 430.528Z" fill="#92E3A9" stroke="#263238" stroke-miterlimit="10"></path>
    <path d="M196.848 430.527L209.463 422.775" stroke="#263238" stroke-width="0.5" stroke-miterlimit="10"></path>
    <path d="M197.374 431.184C197.374 431.184 193.037 431.053 189.884 426.718C188.044 424.09 184.102 411.083 188.57 410.427C193.563 409.507 201.579 423.302 197.374 431.184Z" fill="#92E3A9" stroke="#263238" stroke-miterlimit="10"></path>
    <path d="M197.373 431.184L190.934 417.783" stroke="#263238" stroke-width="0.5" stroke-miterlimit="10"></path>
    <path d="M173.459 351.832L172.145 604.342" stroke="#263238" stroke-width="2" stroke-miterlimit="10"></path>
    <path d="M173.589 562.433L165.441 551.791" stroke="#263238" stroke-width="2" stroke-miterlimit="10"></path>
    <path d="M167.939 554.944C167.939 554.944 168.596 550.608 165.048 546.798C162.946 544.434 150.988 537.865 149.279 542.2C147.571 546.798 159.398 557.44 167.939 554.944Z" fill="#92E3A9" stroke="#263238" stroke-miterlimit="10"></path>
    <path d="M167.941 554.944L156.902 546.404" stroke="#263238" stroke-width="0.5" stroke-miterlimit="10"></path>
    <path d="M173.589 515.923L165.441 505.15" stroke="#263238" stroke-width="2" stroke-miterlimit="10"></path>
    <path d="M167.939 508.434C167.939 508.434 168.596 504.099 165.048 500.289C162.946 497.924 150.988 491.355 149.279 495.69C147.571 500.157 159.398 510.93 167.939 508.434Z" fill="#92E3A9" stroke="#263238" stroke-miterlimit="10"></path>
    <path d="M167.941 508.435L156.902 499.764" stroke="#263238" stroke-width="0.5" stroke-miterlimit="10"></path>
    <path d="M173.589 461.14L165.441 450.498" stroke="#263238" stroke-width="2" stroke-miterlimit="10"></path>
    <path d="M167.939 453.651C167.939 453.651 168.596 449.315 165.048 445.505C162.946 443.141 150.988 436.572 149.279 440.907C147.571 445.505 159.398 456.147 167.939 453.651Z" fill="#92E3A9" stroke="#263238" stroke-miterlimit="10"></path>
    <path d="M167.941 453.651L156.902 445.111" stroke="#263238" stroke-width="0.5" stroke-miterlimit="10"></path>
    <path d="M173.589 424.747L165.441 414.105" stroke="#263238" stroke-width="2" stroke-miterlimit="10"></path>
    <path d="M167.939 417.258C167.939 417.258 168.596 412.923 165.048 409.113C162.946 406.748 150.988 400.179 149.279 404.515C147.571 409.113 159.398 419.755 167.939 417.258Z" fill="#92E3A9" stroke="#263238" stroke-miterlimit="10"></path>
    <path d="M167.941 417.259L156.902 408.588" stroke="#263238" stroke-width="0.5" stroke-miterlimit="10"></path>
    <path d="M173.589 388.224L165.441 377.451" stroke="#263238" stroke-width="2" stroke-miterlimit="10"></path>
    <path d="M167.939 380.735C167.939 380.735 168.596 376.399 165.048 372.589C162.946 370.225 150.988 363.656 149.279 367.991C147.571 372.458 159.398 383.231 167.939 380.735Z" fill="#92E3A9" stroke="#263238" stroke-miterlimit="10"></path>
    <path d="M167.941 380.735L156.902 372.064" stroke="#263238" stroke-width="0.5" stroke-miterlimit="10"></path>
    <path d="M173.457 576.752L181.736 565.979" stroke="#263238" stroke-width="2" stroke-miterlimit="10"></path>
    <path d="M179.239 569.131C179.239 569.131 178.582 564.796 182.13 560.986C184.233 558.621 196.191 552.052 197.899 556.388C199.476 560.986 187.781 571.628 179.239 569.131Z" fill="#92E3A9" stroke="#263238" stroke-miterlimit="10"></path>
    <path d="M179.238 569.132L190.934 560.066" stroke="#263238" stroke-width="0.5" stroke-miterlimit="10"></path>
    <path d="M173.457 502.656L181.736 491.883" stroke="#263238" stroke-width="2" stroke-miterlimit="10"></path>
    <path d="M179.239 495.167C179.239 495.167 178.582 490.831 182.13 487.021C184.233 484.656 196.191 478.087 197.899 482.423C199.476 486.89 187.781 497.663 179.239 495.167Z" fill="#92E3A9" stroke="#263238" stroke-miterlimit="10"></path>
    <path d="M179.238 495.167L190.934 485.971" stroke="#263238" stroke-width="0.5" stroke-miterlimit="10"></path>
    <path d="M173.457 465.999L181.736 455.357" stroke="#263238" stroke-width="2" stroke-miterlimit="10"></path>
    <path d="M179.239 458.51C179.239 458.51 178.582 454.175 182.13 450.365C184.233 448 196.191 441.431 197.899 445.767C199.476 450.365 187.781 461.007 179.239 458.51Z" fill="#92E3A9" stroke="#263238" stroke-miterlimit="10"></path>
    <path d="M179.238 458.51L190.934 449.445" stroke="#263238" stroke-width="0.5" stroke-miterlimit="10"></path>
    <path d="M173.457 417.651L181.736 407.01" stroke="#263238" stroke-width="2" stroke-miterlimit="10"></path>
    <path d="M179.239 410.163C179.239 410.163 178.582 405.827 182.13 402.017C184.233 399.652 196.191 393.083 197.899 397.419C199.476 402.017 187.781 412.659 179.239 410.163Z" fill="#92E3A9" stroke="#263238" stroke-miterlimit="10"></path>
    <path d="M179.238 410.163L190.934 401.098" stroke="#263238" stroke-width="0.5" stroke-miterlimit="10"></path>
    <path d="M173.457 379.683L181.736 369.041" stroke="#263238" stroke-width="2" stroke-miterlimit="10"></path>
    <path d="M179.239 372.196C179.239 372.196 178.582 367.86 182.13 364.05C184.233 361.686 196.191 355.117 197.899 359.452C199.476 364.05 187.781 374.692 179.239 372.196Z" fill="#92E3A9" stroke="#263238" stroke-miterlimit="10"></path>
    <path d="M179.238 372.196L190.934 363.131" stroke="#263238" stroke-width="0.5" stroke-miterlimit="10"></path>
    <path d="M172.931 355.379C172.931 355.379 172.274 351.044 175.822 347.234C177.924 344.869 189.882 338.3 191.591 342.636C193.299 347.103 181.604 357.876 172.931 355.379Z" fill="#92E3A9" stroke="#263238" stroke-miterlimit="10"></path>
    <path d="M172.934 355.378L184.76 346.312" stroke="#263238" stroke-width="0.5" stroke-miterlimit="10"></path>
    <path d="M173.589 355.904C173.589 355.904 169.252 356.167 165.704 352.225C163.602 349.861 158.346 337.248 162.682 336.066C167.544 334.752 176.874 347.627 173.589 355.904Z" fill="#92E3A9" stroke="#263238" stroke-miterlimit="10"></path>
    <path d="M173.588 355.904L165.703 343.16" stroke="#263238" stroke-width="0.5" stroke-miterlimit="10"></path>
    <path d="M507.231 604.344L499.741 516.846H319.844L309.988 604.344H507.231Z" fill="#263238" stroke="#263238" stroke-miterlimit="10"></path>
    <path d="M397.111 251.459C397.111 251.459 344.548 265.911 321.551 283.253C298.555 300.595 282.655 318.462 286.334 352.095C290.014 385.728 314.061 477.956 314.061 477.956C314.061 477.956 310.776 515.399 310.776 517.633C310.776 519.866 310.382 526.172 318.529 526.567C326.676 526.961 424.443 531.034 446.257 531.428C468.071 531.822 496.98 529.588 500.397 526.961C503.682 524.333 505.522 520.26 505.916 515.794C506.31 511.327 509.99 456.936 509.99 456.936L510.384 432.499C510.384 432.499 534.431 352.49 535.877 326.608C537.322 300.726 527.73 292.187 516.954 284.041C506.179 275.896 472.801 262.101 454.667 256.583C436.796 251.196 397.111 251.459 397.111 251.459Z" fill="#92E3A9" stroke="#263238" stroke-miterlimit="10"></path>
    <path d="M410.122 375.744C407.493 411.873 402.631 478.22 403.157 489.65C403.683 505.415 397.375 510.145 397.375 515.925" stroke="#263238" stroke-miterlimit="10"></path>
    <path d="M411.831 352.49C411.831 352.49 411.305 358.665 410.648 368.387" stroke="#263238" stroke-miterlimit="10"></path>
    <path d="M435.352 398.867L438.637 438.544L457.559 437.23L435.352 398.867Z" fill="#263238" stroke="#263238" stroke-miterlimit="10"></path>
    <path d="M417.48 467.972C417.48 467.972 463.473 460.746 466.89 461.534C470.306 462.322 493.96 473.752 497.376 474.409C500.793 475.197 503.815 476.643 503.815 476.643L508.94 480.978L507.232 467.972C507.232 467.972 500.399 459.563 485.155 453.52C469.912 447.476 462.29 450.892 458.874 451.943C455.457 453.257 417.48 467.972 417.48 467.972Z" fill="#263238" stroke="#263238" stroke-miterlimit="10"></path>
    <path d="M346.782 433.289L466.363 432.894C466.363 432.894 504.865 429.216 506.311 428.822C507.756 428.428 522.999 432.5 524.445 433.683C525.89 434.734 525.89 438.15 525.233 441.434C524.445 444.719 524.445 444.719 524.445 444.719C524.445 444.719 525.496 450.631 525.496 453.258C525.496 455.886 522.474 456.543 522.211 457.725C521.817 458.776 524.445 462.849 521.422 465.476C518.4 468.104 518.4 468.104 518.4 468.104C518.4 468.104 518.006 475.198 516.56 477.038C515.115 478.877 510.647 482.162 508.807 481.111C506.968 480.059 507.756 477.038 507.756 475.198C507.756 473.359 506.968 471.52 504.734 471.52C502.5 471.52 502.106 473.359 490.673 470.469C479.241 467.447 466.626 457.462 465.443 457.2C464.392 456.805 363.996 483.869 334.298 487.548C304.732 491.227 302.103 487.154 300.921 482.424C299.869 477.563 297.898 466.133 297.898 466.133L292.773 443.536L346.782 433.289Z" fill="white" stroke="#263238" stroke-miterlimit="10"></path>
    <path d="M424.578 294.946C424.578 294.946 430.754 288.509 434.696 291.399C438.639 294.289 442.187 309.923 447.049 308.61C451.911 307.296 461.635 277.079 461.635 264.992C461.635 252.905 453.225 245.811 451.254 245.154C449.283 244.497 399.611 243.84 393.697 246.073C387.784 248.307 385.55 268.802 383.316 281.151C381.082 293.501 386.207 296.391 389.492 294.815C392.777 293.238 405.392 287.983 408.415 287.983C411.174 288.115 424.578 294.946 424.578 294.946Z" fill="#92E3A9" stroke="#263238" stroke-miterlimit="10"></path>
    <path d="M457.823 226.365C457.823 226.365 453.224 249.357 451.384 255.137C449.544 260.787 436.404 278.129 432.987 281.807C429.571 285.486 419.846 303.353 417.218 303.747C414.59 304.273 407.363 279.968 407.363 279.968C407.363 279.968 398.033 263.94 396.193 259.735C394.353 255.531 391.594 243.444 391.594 243.444C391.594 243.444 406.837 256.582 423.132 253.823C439.426 250.933 447.705 234.642 447.705 234.642L457.823 226.365Z" fill="white" stroke="#263238" stroke-miterlimit="10"></path>
    <path d="M394.617 180.514C394.617 180.514 390.018 175.653 387.521 183.142C384.893 190.63 390.149 203.899 390.149 203.899L394.617 180.514Z" fill="white" stroke="#263238" stroke-miterlimit="10"></path>
    <path d="M395.403 165.275C395.403 165.275 387.913 218.614 387.913 221.768C387.913 224.921 385.811 235.168 388.964 242C392.118 248.7 401.448 256.977 408.938 258.028C416.429 259.079 431.146 257.503 439.556 251.065C447.835 244.627 457.428 230.57 457.428 230.57C457.428 230.57 467.809 228.993 474.511 226.234C481.212 223.344 486.469 216.907 486.206 210.206C485.943 203.506 481.869 198.251 481.869 198.251L477.927 191.025L488.308 171.581C488.308 171.581 482.395 160.414 463.21 149.772C444.024 139.13 426.941 135.846 418.925 135.846C410.909 135.846 400.791 139.262 397.9 145.699C394.878 152.137 395.403 165.275 395.403 165.275Z" fill="white" stroke="#263238" stroke-miterlimit="10"></path>
    <path d="M419.978 139.13C419.978 139.13 434.696 163.436 445.866 162.384C457.035 161.333 460.321 156.21 460.321 156.21L467.811 166.326C467.811 166.326 459.795 169.742 461.372 173.814C462.949 178.019 469.913 187.215 469.913 187.215L464.263 211.52C464.263 211.52 468.599 212.308 469.388 210.732C470.176 209.155 473.987 199.565 473.987 199.565C473.987 199.565 475.564 198.514 477.403 197.988C479.243 197.463 481.609 197.988 481.609 197.988C481.609 197.988 484.5 188.398 485.551 188.135C486.602 187.872 496.983 184.982 500.794 174.997C504.736 164.881 498.691 148.852 485.288 136.109C471.884 123.365 443.369 120.08 441.792 117.716C440.215 115.351 449.019 118.767 447.18 113.512C445.34 108.388 434.039 101.556 419.453 108.913C404.998 116.139 406.969 124.153 408.546 126.781C410.123 129.408 410.123 129.408 410.123 129.408C410.123 129.408 397.902 125.204 389.36 130.459C380.819 135.583 376.614 145.962 380.556 147.013C384.498 148.064 389.36 145.699 389.36 145.699C389.36 145.699 384.236 154.239 385.681 156.078C387.258 157.918 395.274 165.143 395.274 165.143C395.274 165.143 398.428 147.013 404.867 144.386C411.306 141.758 419.978 139.13 419.978 139.13Z" fill="#263238" stroke="#263238" stroke-miterlimit="10"></path>
    <path d="M415.38 174.078L417.745 181.567L404.473 206.397L418.402 211.915" stroke="#263238" stroke-miterlimit="10"></path>
    <path d="M412.75 171.186C412.75 171.186 406.574 166.325 401.318 167.508C396.193 168.821 399.215 169.61 402.895 170.923C406.574 172.237 413.801 175.653 412.75 171.186Z" fill="#263238" stroke="#263238" stroke-miterlimit="10"></path>
    <path d="M431.938 170.136C431.938 170.136 426.025 171.712 428.785 173.026C431.675 174.34 440.217 171.712 443.502 173.026C446.787 174.34 451.255 178.675 450.992 176.705C450.73 174.603 448.627 170.53 444.028 168.953C439.429 167.377 431.938 170.136 431.938 170.136Z" fill="#263238" stroke="#263238" stroke-miterlimit="10"></path>
    <path d="M409.333 182.748C408.939 184.588 407.625 185.901 406.442 185.639C405.391 185.376 404.734 183.668 405.259 181.697C405.653 179.858 406.968 178.544 408.15 178.807C409.201 179.07 409.858 180.778 409.333 182.748Z" fill="#263238"></path>
    <path d="M437.587 190.106C437.193 191.945 435.878 193.259 434.696 192.996C433.645 192.733 432.987 191.025 433.513 189.055C433.907 187.215 435.221 185.902 436.404 186.164C437.455 186.427 437.981 188.266 437.587 190.106Z" fill="#263238"></path>
    <path d="M396.457 214.936L407.101 222.03" stroke="#263238" stroke-miterlimit="10"></path>
    <path d="M505.656 277.734C505.656 277.734 542.319 291.792 549.415 312.944C556.511 334.096 547.575 360.766 543.896 371.802C540.217 382.969 517.22 426.193 513.541 436.572C509.861 446.95 504.342 459.563 504.342 459.563C504.342 459.563 499.217 428.426 485.025 409.245C470.965 389.932 467.68 372.59 467.68 372.59C467.68 372.59 493.173 327.396 499.875 313.338" fill="#92E3A9"></path>
    <path d="M505.656 277.734C505.656 277.734 542.319 291.792 549.415 312.944C556.511 334.096 547.575 360.766 543.896 371.802C540.217 382.969 517.22 426.193 513.541 436.572C509.861 446.95 504.342 459.563 504.342 459.563C504.342 459.563 499.217 428.426 485.025 409.245C470.965 389.932 467.68 372.59 467.68 372.59C467.68 372.59 493.173 327.396 499.875 313.338" stroke="#263238" stroke-miterlimit="10"></path>
    <path d="M471.359 364.707C471.359 364.707 478.85 360.897 481.346 362.211C483.843 363.525 515.906 380.604 520.111 400.18C524.317 419.755 518.009 436.44 514.33 443.535C510.519 450.629 503.554 464.424 498.035 466.001C492.647 467.708 488.048 423.04 476.747 399.785C465.577 376.4 471.359 364.707 471.359 364.707Z" fill="#92E3A9" stroke="#263238" stroke-miterlimit="10"></path>
    <path d="M483.844 343.293C483.844 343.293 490.546 320.695 493.042 311.762" stroke="#263238" stroke-miterlimit="10"></path>
    <path d="M416.955 263.153C416.955 263.153 406.574 248.701 398.558 239.111C390.542 229.52 382.263 223.871 379.372 224.659C376.481 225.447 375.43 228.338 377.27 231.622C379.109 235.038 387.651 242.526 389.228 244.629C390.805 246.731 393.17 254.219 393.17 254.219C393.17 254.219 385.68 254.745 384.366 256.321C383.052 257.898 381.212 261.971 381.212 261.971C381.212 261.971 378.584 263.284 377.27 265.386C375.956 267.488 375.956 268.014 375.693 269.065C375.43 270.116 371.751 271.955 372.013 276.554C372.276 281.152 376.613 287.984 378.19 291.005C379.766 294.158 391.199 307.822 393.17 310.187C395.141 312.551 407.099 333.178 410.253 340.272C413.407 347.235 443.368 428.296 452.172 440.514C460.976 452.733 477.271 464.294 486.075 468.498C494.879 472.702 501.056 465.608 505.261 456.806C509.466 448.003 513.014 430.398 504.998 410.166C496.982 389.934 481.213 372.592 468.992 362.213C456.771 351.834 434.038 325.952 431.41 321.354C428.781 316.756 425.496 306.377 425.496 306.377C425.496 306.377 432.198 286.67 432.724 282.072C433.249 277.473 430.621 269.065 431.41 265.518C432.198 261.839 435.352 254.613 436.535 251.592C437.849 248.439 442.185 243.315 439.951 240.95C437.586 238.585 427.993 241.475 424.708 246.862C421.554 251.986 416.955 263.153 416.955 263.153Z" fill="white" stroke="#263238" stroke-miterlimit="10"></path>
    <path d="M336.926 319.25C337.714 315.177 338.24 312.287 338.24 312.287L336.926 319.25Z" fill="#92E3A9"></path>
    <path d="M336.926 319.25C337.714 315.177 338.24 312.287 338.24 312.287" stroke="#263238" stroke-miterlimit="10"></path>
    <path d="M334.562 276.684C334.562 276.684 314.983 279.311 294.614 301.12C274.246 322.929 283.182 374.824 285.022 385.597C286.861 396.37 289.884 429.346 289.884 429.346L342.053 412.004C342.053 412.004 333.511 353.803 332.854 348.679C332.46 346.052 333.905 336.855 335.351 328.315" fill="#92E3A9"></path>
    <path d="M334.562 276.684C334.562 276.684 314.983 279.311 294.614 301.12C274.246 322.929 283.182 374.824 285.022 385.597C286.861 396.37 289.884 429.346 289.884 429.346L342.053 412.004C342.053 412.004 333.511 353.803 332.854 348.679C332.46 346.052 333.905 336.855 335.351 328.315" stroke="#263238" stroke-miterlimit="10"></path>
    <path d="M284.495 417.784C284.495 417.784 289.62 445.505 292.248 447.081C294.876 448.527 335.218 437.491 339.686 436.703C344.154 435.914 346.782 437.097 346.782 433.418C346.782 429.739 343.103 412.266 340.869 409.376C338.635 406.354 290.54 412.66 286.466 413.843C282.261 414.762 284.495 417.784 284.495 417.784Z" fill="#92E3A9" stroke="#263238" stroke-miterlimit="10"></path>
    <path d="M314.062 396.239C329.043 402.151 340.738 409.246 340.738 409.246C340.738 409.246 328.123 385.597 322.998 380.736" stroke="#263238" stroke-miterlimit="10"></path>
    <path d="M307.098 393.742C308.543 394.268 309.989 394.793 311.434 395.319" stroke="#263238" stroke-miterlimit="10"></path>
    <path d="M428.648 514.873C438.241 511.457 447.045 507.647 452.302 503.969" stroke="#263238" stroke-miterlimit="10"></path>
    <path d="M383.445 528.143C383.445 528.143 403.945 523.282 423.393 516.713" stroke="#263238" stroke-miterlimit="10"></path>
    <path d="M469.516 502.525C459.398 507.518 443.498 514.875 430.488 518.159" stroke="#263238" stroke-miterlimit="10"></path>
    <path d="M479.375 497.4C479.375 497.4 477.272 498.583 473.855 500.291" stroke="#263238" stroke-miterlimit="10"></path>
    <path d="M137.977 19.3119C49.8024 61.7473 33.1137 186.426 88.9619 261.312C100.657 276.946 115.9 290.215 134.035 297.835C195.796 323.98 245.337 271.954 275.429 224.132C323.524 147.801 329.569 128.882 328.649 141.757C327.729 154.632 350.069 168.296 362.946 100.504C379.372 13.794 258.083 -5.91281 196.585 2.23268C176.085 5.12302 156.111 10.6409 137.977 19.3119Z" fill="white" fill-opacity="0.53" stroke="#263238" stroke-opacity="0.15" stroke-miterlimit="10"></path>
    <path d="M335.219 165.8C330.094 175.128 330.357 185.244 336.007 188.266C341.658 191.419 350.331 186.295 355.455 176.967C360.58 167.639 360.317 157.523 354.667 154.502C349.148 151.348 340.344 156.472 335.219 165.8Z" fill="white" fill-opacity="0.53" stroke="#263238" stroke-opacity="0.15" stroke-miterlimit="10"></path>
    <path d="M364.787 178.937C361.765 184.455 361.896 190.367 365.313 192.206C368.598 194.045 373.723 191.024 376.876 185.506C379.899 179.988 379.767 174.076 376.351 172.236C372.934 170.397 367.809 173.419 364.787 178.937Z" fill="white" fill-opacity="0.53" stroke="#263238" stroke-opacity="0.15" stroke-miterlimit="10"></path>
    <path d="M175.771 171.037H199.385L200.101 160.541C200.578 151.477 210.835 144.083 220.615 134.78C231.349 124.284 241.605 111.642 241.605 93.0367C241.605 62.2661 217.752 47 192.229 47C172.67 47 155.972 55.1101 145 68.9449L165.037 87.5505C171 78.7248 181.018 73.4771 190.083 73.4771C202.486 73.4771 211.55 80.8715 211.55 94.4679C211.55 106.394 204.156 115.22 196.284 123.807C186.266 134.303 175.532 144.083 175.771 159.11V171.037ZM188.174 226.376C197.954 226.376 206.064 218.505 206.064 208.725C206.064 198.945 197.954 190.835 188.174 190.835C178.156 190.835 170.046 198.945 170.046 208.725C170.046 218.505 178.156 226.376 188.174 226.376Z" fill="#263238"></path>
  </g>
  <defs>
    <clipPath id="clip0_2909_23118">
      <rect width="605" height="605" fill="white"></rect>
    </clipPath>
  </defs>
</svg>
